HIERARCHY
ROOT joint_Root
{
  OFFSET 0 0 0
  CHANNELS 6 Xposition Yposition Zposition Zrotation Xrotation Yrotation
  JOINT Hips
  {
    OFFSET 0 93.9241 -3
    CHANNELS 6 Xposition Yposition Zposition Zrotation Xrotation Yrotation
    JOINT Spine
    {
      OFFSET 15.7357 0 0
      CHANNELS 6 Xposition Yposition Zposition Zrotation Xrotation Yrotation
      JOINT Chest
      {
        OFFSET 8.98455 -0.406207 0
        CHANNELS 6 Xposition Yposition Zposition Zrotation Xrotation Yrotation
        JOINT Neck
        {
          OFFSET 16.3773 0 0
          CHANNELS 6 Xposition Yposition Zposition Zrotation Xrotation Yrotation
          JOINT Head
          {
            OFFSET 6.45672 0 0
            CHANNELS 6 Xposition Yposition Zposition Zrotation Xrotation Yrotation
            End Site
            {
              OFFSET 0 0 0
            }
          }
        }
        JOINT Shoulder_L
        {
          OFFSET 12.9942 -0.242716 4.98039
          CHANNELS 6 Xposition Yposition Zposition Zrotation Xrotation Yrotation
          JOINT UpperArm_L
          {
            OFFSET 5.34809 0 0
            CHANNELS 6 Xposition Yposition Zposition Zrotation Xrotation Yrotation
            JOINT LowerArm_L
            {
              OFFSET 24.3286 1.87007e-05 0
              CHANNELS 6 Xposition Yposition Zposition Zrotation Xrotation Yrotation
              JOINT Hand_L
              {
                OFFSET 22.2916 0 0
                CHANNELS 6 Xposition Yposition Zposition Zrotation Xrotation Yrotation
                End Site
                {
                  OFFSET 0 0 0
                }
              }
            }
          }
        }
        JOINT Shoulder_R
        {
          OFFSET 12.9945 -0.242716 -4.98039
          CHANNELS 6 Xposition Yposition Zposition Zrotation Xrotation Yrotation
          JOINT UpperArm_R
          {
            OFFSET -5.34813 0 0
            CHANNELS 6 Xposition Yposition Zposition Zrotation Xrotation Yrotation
            JOINT LowerArm_R
            {
              OFFSET -24.3289 0.000322201 0
              CHANNELS 6 Xposition Yposition Zposition Zrotation Xrotation Yrotation
              JOINT Hand_R
              {
                OFFSET -22.2915 -0.000108084 0
                CHANNELS 6 Xposition Yposition Zposition Zrotation Xrotation Yrotation
                End Site
                {
                  OFFSET 0 0 0
                }
              }
            }
          }
        }
      }
    }
    JOINT UpperLeg_L
    {
      OFFSET -2.19248 -6.46944 0
      CHANNELS 6 Xposition Yposition Zposition Zrotation Xrotation Yrotation
      JOINT LowerLeg_L
      {
        OFFSET 39.0811 0 -1.23785e-05
        CHANNELS 6 Xposition Yposition Zposition Zrotation Xrotation Yrotation
        JOINT Foot_L
        {
          OFFSET 40.9854 0 -1.26872e-05
          CHANNELS 6 Xposition Yposition Zposition Zrotation Xrotation Yrotation
          JOINT Toes_L
          {
            OFFSET 11.7543 0 0
            CHANNELS 6 Xposition Yposition Zposition Zrotation Xrotation Yrotation
            End Site
            {
              OFFSET 0 0 0
            }
          }
        }
      }
    }
    JOINT UpperLeg_R
    {
      OFFSET -2.19251 6.46944 0
      CHANNELS 6 Xposition Yposition Zposition Zrotation Xrotation Yrotation
      JOINT LowerLeg_R
      {
        OFFSET -39.0811 -0.00228153 -0.0401928
        CHANNELS 6 Xposition Yposition Zposition Zrotation Xrotation Yrotation
        JOINT Foot_R
        {
          OFFSET -40.9854 0 0
          CHANNELS 6 Xposition Yposition Zposition Zrotation Xrotation Yrotation
          JOINT Toes_R
          {
            OFFSET -11.7543 0 0
            CHANNELS 6 Xposition Yposition Zposition Zrotation Xrotation Yrotation
            End Site
            {
              OFFSET 0 0 0
            }
          }
        }
      }
    }
  }
}
MOTION
Frames:	8
Frame Time:	0.0333333
0 0 0 0 0 -0 9.65344 90.9463 0.764758 73.7875 -76.0294 -15.7324 15.7357 5.1072e-06 -5.51765e-07 164.885 85.4544 -164.229 8.98455 -0.406207 -4.3199e-07 -5.47971 8.69032 1.73158 16.3773 -1.3905e-06 -6.99897e-07 -5.00297 16.1595 2.13761 6.45672 -1.25837e-06 -1.02172e-07 2.32541 20.5212 3.72723 12.9942 -0.242716 4.98039 -90.5373 1.90039 -89.2102 5.34809 -7.22636e-06 -6.2814e-07 -73.1705 -4.01411 -6.69188 24.3286 1.87007e-05 4.90208e-06 3.45085 9.74473 -19.6084 22.2916 -9.88446e-07 4.63217e-06 16.574 5.24947 1.44656 12.9945 -0.242716 -4.98039 89.758 2.91847 -100.259 -5.34813 -1.25947e-06 -3.79883e-06 -69.9092 -16.4672 5.54313 -24.3289 0.000322201 -8.65921e-06 -0.145986 -1.18271 -6.98778 -22.2915 -0.000108084 -4.47941e-06 18.8166 5.4356 -4.13167 -2.19248 -6.46944 -1.22534e-07 -174.353 7.58284 -18.6254 39.0811 -6.73843e-06 -1.23785e-05 -0.384511 0.139791 68.9399 40.9854 -6.48686e-06 -1.26872e-05 3.31797 -4.76482 -36.9762 11.7543 -2.30145e-07 3.05095e-06 0.413428 -0.498184 -21.2955 -2.19251 6.46944 -1.45247e-06 -167.511 17.0609 164.392 -39.0811 -0.00228153 -0.0401928 0.14553 -0.266036 24.2821 -40.9854 7.72618e-06 5.99936e-06 8.01736 -5.89015 -61.5023 -11.7543 -5.6619e-06 -5.58687e-06 0.060718 -0.0633469 -17.0624 
0 0 0 0 0 -0 6.81147 91.1954 0.809337 76.7179 -77.4873 -13.2231 15.7357 5.1072e-06 -5.51765e-07 165.957 84.9178 -165.567 8.98455 -0.406207 -4.3199e-07 -5.37614 9.80449 1.24259 16.3773 -1.3905e-06 -6.99897e-07 -5.25982 16.4177 2.28344 6.45672 -1.25837e-06 -1.02172e-07 2.22987 20.192 3.36835 12.9942 -0.242716 4.98039 -90.7426 2.53821 -88.6883 5.34809 -7.22636e-06 -6.2814e-07 -72.9933 -5.87819 -1.13191 24.3286 1.87007e-05 4.90208e-06 2.89427 9.60151 -16.8621 22.2916 -9.88446e-07 4.63217e-06 15.2778 5.25866 1.20032 12.9945 -0.242716 -4.98039 89.8215 2.49781 -100.914 -5.34813 -1.25947e-06 -3.79883e-06 -69.6506 -16.3902 2.11817 -24.3289 0.000322201 -8.65921e-06 -0.188413 -1.02537 -10.3572 -22.2915 -0.000108084 -4.47941e-06 20.8355 5.4407 -4.30911 -2.19248 -6.46944 -1.22534e-07 -176.322 7.50396 -23.612 39.0811 -6.73843e-06 -1.23785e-05 -0.468976 0.170866 70.7715 40.9854 -6.48686e-06 -1.26872e-05 7.37947 -9.57777 -39.8234 11.7543 -2.30145e-07 3.05095e-06 0.427214 -0.516288 -21.461 -2.19251 6.46944 -1.45247e-06 -168.642 16.9319 166.73 -39.0811 -0.00228153 -0.0401928 0.136014 -0.256147 23.4738 -40.9854 7.72618e-06 5.99936e-06 7.90502 -4.96214 -63.2264 -11.7543 -5.6619e-06 -5.58687e-06 0.051067 -0.0532173 -16.9845 
0 0 0 0 0 -0 4.09635 91.4299 0.930321 80.504 -78.9896 -9.7712 15.7357 5.1072e-06 -5.51765e-07 165.543 84.4722 -165.409 8.98455 -0.406207 -4.3199e-07 -5.06611 10.6794 0.742129 16.3773 -1.3905e-06 -6.99897e-07 -5.51486 16.8547 2.42852 6.45672 -1.25837e-06 -1.02172e-07 1.89747 20.1868 2.83399 12.9942 -0.242716 4.98039 -90.9434 3.08981 -88.0142 5.34809 -7.22636e-06 -6.2814e-07 -72.2959 -8.13427 4.81097 24.3286 1.87007e-05 4.90208e-06 2.41501 9.25108 -14.6997 22.2916 -9.88446e-07 4.63217e-06 14.6584 5.28145 0.586226 12.9945 -0.242716 -4.98039 89.8947 1.80502 -101.663 -5.34813 -1.25947e-06 -3.79883e-06 -69.593 -16.7472 -1.2657 -24.3289 0.000322201 -8.65921e-06 -0.209458 -0.816457 -14.3253 -22.2915 -0.000108084 -4.47941e-06 21.8745 5.44496 -4.46033 -2.19248 -6.46944 -1.22534e-07 -178.051 7.62536 -28.2006 39.0811 -6.73843e-06 -1.23785e-05 -0.57097 0.20174 69.7079 40.9854 -6.48686e-06 -1.26872e-05 10.3282 -13.0243 -42.2075 11.7543 -2.30145e-07 3.05095e-06 0.439757 -0.532877 -21.6124 -2.19251 6.46944 -1.45247e-06 -169.999 17.0779 169.293 -39.0811 -0.00228153 -0.0401928 0.118308 -0.233573 22.2509 -40.9854 7.72618e-06 5.99936e-06 7.80359 -3.59643 -64.6811 -11.7543 -5.6619e-06 -5.58687e-06 0.040123 -0.0417392 -16.8961 
0 0 0 0 0 -0 1.51421 91.6827 1.0396 84.4506 -80.1037 -6.32817 15.7357 5.1072e-06 -5.51765e-07 165.326 84.1762 -165.366 8.98455 -0.406207 -4.3199e-07 -4.86173 11.2613 0.398172 16.3773 -1.3905e-06 -6.99897e-07 -5.70017 17.2535 2.42504 6.45672 -1.25837e-06 -1.02172e-07 1.47342 20.3398 2.37951 12.9942 -0.242716 4.98039 -91.1258 3.5321 -87.3092 5.34809 -7.22636e-06 -6.2814e-07 -71.1473 -10.9118 10.722 24.3286 1.87007e-05 4.90208e-06 1.95061 8.74546 -12.6243 22.2916 -9.88446e-07 4.63217e-06 14.3116 5.2863 0.453653 12.9945 -0.242716 -4.98039 89.9419 1.16459 -102.145 -5.34813 -1.25947e-06 -3.79883e-06 -69.4984 -17.599 -4.63746 -24.3289 0.000322201 -8.65921e-06 -0.0632764 -0.189952 -18.1529 -22.2915 -0.000108084 -4.47941e-06 22.0125 5.45098 -4.67444 -2.19248 -6.46944 -1.22534e-07 -179.154 8.53645 -31.3083 39.0811 -6.73843e-06 -1.23785e-05 -0.499552 0.227339 64.5759 40.9854 -6.48686e-06 -1.26872e-05 10.6156 -13.5809 -45.1356 11.7543 -2.30145e-07 3.05095e-06 0.414207 -0.499185 -21.3047 -2.19251 6.46944 -1.45247e-06 -171.168 17.6224 172.046 -39.0811 -0.00228153 -0.0401928 0.0888031 -0.192397 19.9972 -40.9854 7.72618e-06 5.99936e-06 7.74295 -2.04292 -65.5567 -11.7543 -5.6619e-06 -5.58687e-06 0.0536032 -0.0558668 -17.0048 
0 0 0 0 0 -0 -1.00227 91.9097 1.17149 87.7335 -81.0777 -3.78003 15.7357 5.1072e-06 -5.51765e-07 166.308 83.9126 -166.472 8.98455 -0.406207 -4.3199e-07 -4.92365 11.8349 0.182128 16.3773 -1.3905e-06 -6.99897e-07 -5.91878 17.543 2.39601 6.45672 -1.25837e-06 -1.02172e-07 1.19797 20.4419 2.17835 12.9942 -0.242716 4.98039 -91.235 3.72002 -86.6203 5.34809 -7.22636e-06 -6.2814e-07 -69.5751 -13.5381 16.4251 24.3286 1.87007e-05 4.90208e-06 1.35927 7.39209 -10.446 22.2916 -9.88446e-07 4.63217e-06 14.5621 5.27997 0.627382 12.9945 -0.242716 -4.98039 89.9592 0.863794 -102.295 -5.34813 -1.25947e-06 -3.79883e-06 -69.0959 -17.9281 -7.59826 -24.3289 0.000322201 -8.65921e-06 0.226333 0.571074 -21.6945 -22.2915 -0.000108084 -4.47941e-06 22.3911 5.45178 -4.70341 -2.19248 -6.46944 -1.22534e-07 -179.76 9.38631 -32.855 39.0811 -6.73843e-06 -1.23785e-05 -0.365957 0.240505 55.5111 40.9854 -6.48686e-06 -1.26872e-05 10.585 -11.4533 -47.1181 11.7543 -2.30145e-07 3.05095e-06 0.412331 -0.496741 -21.2822 -2.19251 6.46944 -1.45247e-06 -172.025 17.3717 174.929 -39.0811 -0.00228153 -0.0401928 0.0557962 -0.138297 16.7717 -40.9854 7.72618e-06 5.99936e-06 7.49963 -1.35695 -65.7656 -11.7543 -5.6619e-06 -5.58687e-06 0.0862771 -0.0903587 -17.2692 
0 0 0 0 0 -0 -3.49654 92.0779 1.3432 89.8277 -82.0421 -2.59425 15.7357 5.1072e-06 -5.51765e-07 168.333 83.672 -168.525 8.98455 -0.406207 -4.3199e-07 -5.25314 12.4022 0.1872 16.3773 -1.3905e-06 -6.99897e-07 -6.02932 17.8941 2.30339 6.45672 -1.25837e-06 -1.02172e-07 1.10762 20.4333 2.02395 12.9942 -0.242716 4.98039 -91.2889 3.71746 -85.8631 5.34809 -7.22636e-06 -6.2814e-07 -67.2667 -16.9611 21.844 24.3286 1.87007e-05 4.90208e-06 0.783195 5.52731 -8.07234 22.2916 -9.88446e-07 4.63217e-06 14.6006 5.26881 0.929277 12.9945 -0.242716 -4.98039 89.9744 0.572228 -102.438 -5.34813 -1.25947e-06 -3.79883e-06 -68.6504 -17.9266 -9.93609 -24.3289 0.000322201 -8.65921e-06 0.524447 1.13237 -24.8867 -22.2915 -0.000108084 -4.47941e-06 23.1686 5.45063 -4.66207 -2.19248 -6.46944 -1.22534e-07 179.94 9.70536 -32.3846 39.0811 -6.73843e-06 -1.23785e-05 -0.207187 0.215862 42.3394 40.9854 -6.48686e-06 -1.26872e-05 9.79909 -8.05888 -49.0647 11.7543 -2.30145e-07 3.05095e-06 0.404183 -0.486054 -21.1842 -2.19251 6.46944 -1.45247e-06 -172.588 16.6477 178.018 -39.0811 -0.00228153 -0.0401928 0.0301463 -0.0940609 12.6197 -40.9854 7.72618e-06 5.99936e-06 7.17598 -0.942746 -65.291 -11.7543 -5.6619e-06 -5.58687e-06 0.11449 -0.120382 -17.4988 
0 0 0 0 0 -0 -6.14286 92.0756 1.50439 87.6275 -83.0841 -5.55013 15.7357 5.1072e-06 -5.51765e-07 170.904 83.3935 -170.923 8.98455 -0.406207 -4.3199e-07 -5.75797 13.0315 0.619794 16.3773 -1.3905e-06 -6.99897e-07 -6.09914 18.2808 2.27504 6.45672 -1.25837e-06 -1.02172e-07 1.34167 20.4743 1.85349 12.9942 -0.242716 4.98039 -91.2319 3.38889 -85.0091 5.34809 -7.22636e-06 -6.2814e-07 -64.3918 -20.4066 26.948 24.3286 1.87007e-05 4.90208e-06 0.398545 3.91326 -5.81564 22.2916 -9.88446e-07 4.63217e-06 15.4648 5.24284 1.61971 12.9945 -0.242716 -4.98039 89.9944 0.13123 -102.569 -5.34813 -1.25947e-06 -3.79883e-06 -68.4295 -17.8696 -11.6522 -24.3289 0.000322201 -8.65921e-06 0.740198 1.44086 -27.2289 -22.2915 -0.000108084 -4.47941e-06 23.8254 5.4559 -4.85095 -2.19248 -6.46944 -1.22534e-07 179.728 8.68126 -29.3852 39.0811 -6.73843e-06 -1.23785e-05 -0.0807441 0.15406 25.4512 40.9854 -6.48686e-06 -1.26872e-05 9.17221 -2.39333 -51.8256 11.7543 -2.30145e-07 3.05095e-06 0.406758 -0.489431 -21.2153 -2.19251 6.46944 -1.45247e-06 -172.661 16.3596 179.385 -39.0811 -0.00228153 -0.0401928 0.0238448 -0.07252 11.9231 -40.9854 7.72618e-06 5.99936e-06 6.96172 -0.0422317 -64.7733 -11.7543 -5.6619e-06 -5.58687e-06 0.21331 -0.241547 -18.5351 
0 0 0 0 0 -0 -9.13263 91.6642 1.56881 78.79 -84.259 -14.8179 15.7357 5.1072e-06 -5.51765e-07 173.402 83.0411 -173.096 8.98455 -0.406207 -4.3199e-07 -6.30718 13.7657 1.37734 16.3773 -1.3905e-06 -6.99897e-07 -6.1047 18.5983 2.36254 6.45672 -1.25837e-06 -1.02172e-07 1.55528 20.5143 1.81623 12.9942 -0.242716 4.98039 -91.0248 2.72076 -84.3523 5.34809 -7.22636e-06 -6.2814e-07 -61.3399 -23.1502 31.8377 24.3286 1.87007e-05 4.90208e-06 0.227062 3.16693 -4.10076 22.2916 -9.88446e-07 4.63217e-06 16.241 5.20647 2.553 12.9945 -0.242716 -4.98039 90.0189 -0.460638 -102.658 -5.34813 -1.25947e-06 -3.79883e-06 -68.5578 -17.6517 -12.8539 -24.3289 0.000322201 -8.65921e-06 0.913289 1.67444 -28.6429 -22.2915 -0.000108084 -4.47941e-06 23.8933 5.4597 -4.99 -2.19248 -6.46944 -1.22534e-07 179.848 7.05752 -25.0981 39.0811 -6.73843e-06 -1.23785e-05 -0.0167467 0.0849318 8.15368 40.9854 -6.48686e-06 -1.26872e-05 6.76378 1.29337 -53.5588 11.7543 -2.30145e-07 3.05095e-06 0.407335 -0.490164 -21.222 -2.19251 6.46944 -1.45247e-06 -172.055 14.4463 179.947 -39.0811 -0.00228153 -0.0401928 0.0293539 -0.0770867 13.8409 -40.9854 7.72618e-06 5.99936e-06 6.64415 -0.822246 -65.5122 -11.7543 -5.6619e-06 -5.58687e-06 0.273185 -0.385291 -20.536 
